<?xml version="1.0" ?><!DOCTYPE svg  PUBLIC '-//W3C//DTD SVG 1.1//EN'  'http://www.w3.org/Graphics/SVG/1.1/DTD/svg11.dtd'><svg enable-background="new 0 0 64 64" height="64px" id="Layer_1" version="1.1" viewBox="0 0 64 64" width="64px" xml:space="preserve" xmlns="http://www.w3.org/2000/svg" xmlns:xlink="http://www.w3.org/1999/xlink"><path d="M62.252,2.823H1.747c-0.959,0-1.735,0.778-1.735,1.736V59.44c0,0.958,0.776,1.736,1.735,1.736h60.505  c0.96,0,1.736-0.778,1.736-1.736V4.56C63.988,3.602,63.212,2.823,62.252,2.823z M39.031,53.468  c2.825-1.087,7.688-4.006,5.831-10.977c-1.281-4.836-5.03-7.006-7.695-10.314c-2.664-3.303-3.357-4.245-2.613-6.784  c-3.506,2.889-4.098,5.109-3.259,8.61c0.839,3.506-0.099,3.9-1.332,4.197c-1.234,0.292-1.824-0.99-1.678-2.174  c-1.922,1.236-7.894,4.344-5.97,11.151c1.431,3.701,4.786,6.118,8.783,6.86c0.61,0.084,1.288,0.125,1.966,0.143  c-1.549,0.027-3.277-0.01-4.742-0.218c-5.858-1.083-10.774-4.627-12.872-10.051c-2.819-9.979,5.929-14.536,8.75-16.342  c-0.217,1.736,0.65,3.614,2.459,3.18c1.809-0.435,3.182-1.01,1.953-6.146c-1.229-5.136-0.361-8.39,4.773-12.621  c-1.086,3.722-0.074,5.098,3.832,9.946c3.905,4.844,9.4,8.024,11.28,15.111C51.435,48.051,42.909,52.185,39.031,53.468z" fill="#de2445"/></svg>